<svg width="33" height="31" viewBox="0 0 33 31" fill="none" xmlns="http://www.w3.org/2000/svg">
<path fill-rule="evenodd" clip-rule="evenodd" d="M2.65953 7.80857L0 7.56419L0.22549 5.20001L4.49329 5.59218L5.59618 9.0918L24 10.7829L23.164 19.5485L7.19617 22.2039L2.65953 7.80857ZM6.37019 11.5478L8.88113 19.5154L20.9285 17.5119L21.3659 12.9258L6.37019 11.5478Z" fill="white"/>
<path fill-rule="evenodd" clip-rule="evenodd" d="M18.7707 27.8255C19.1047 27.8255 19.3755 27.5597 19.3755 27.2319C19.3755 26.904 19.1047 26.6382 18.7707 26.6382C18.4367 26.6382 18.1659 26.904 18.1659 27.2319C18.1659 27.5597 18.4367 27.8255 18.7707 27.8255ZM18.7707 30.2C20.4408 30.2 21.7947 28.8711 21.7947 27.2319C21.7947 25.5926 20.4408 24.2637 18.7707 24.2637C17.1006 24.2637 15.7468 25.5926 15.7468 27.2319C15.7468 28.8711 17.1006 30.2 18.7707 30.2Z" fill="white"/>
<path fill-rule="evenodd" clip-rule="evenodd" d="M9.09413 27.8255C9.42814 27.8255 9.69891 27.5597 9.69891 27.2319C9.69891 26.904 9.42814 26.6382 9.09413 26.6382C8.76011 26.6382 8.48934 26.904 8.48934 27.2319C8.48934 27.5597 8.76011 27.8255 9.09413 27.8255ZM9.09413 30.2C10.7642 30.2 12.1181 28.8711 12.1181 27.2319C12.1181 25.5926 10.7642 24.2637 9.09413 24.2637C7.42405 24.2637 6.07019 25.5926 6.07019 27.2319C6.07019 28.8711 7.42405 30.2 9.09413 30.2Z" fill="white"/>
<g filter="url(#filter0_b_8326_1517)">
<rect x="15" width="18" height="16.8" rx="3.6" fill="#150F26" fill-opacity="0.35"/>
<path d="M21.48 12.3904V11.3824L24.4368 8.74722C24.6672 8.54242 24.8272 8.34882 24.9168 8.16642C25.0064 7.98402 25.0512 7.80802 25.0512 7.63842C25.0512 7.40802 25.0016 7.20322 24.9024 7.02402C24.8032 6.84162 24.6656 6.69762 24.4896 6.59202C24.3168 6.48642 24.1168 6.43362 23.8896 6.43362C23.6496 6.43362 23.4368 6.48962 23.2512 6.60162C23.0688 6.71042 22.9264 6.85602 22.824 7.03842C22.7216 7.22082 22.6736 7.41762 22.68 7.62882H21.4896C21.4896 7.16802 21.592 6.76642 21.7968 6.42402C22.0048 6.08162 22.2896 5.81602 22.6512 5.62722C23.016 5.43842 23.4368 5.34402 23.9136 5.34402C24.3552 5.34402 24.752 5.44322 25.104 5.64162C25.456 5.83682 25.7328 6.10882 25.9344 6.45762C26.136 6.80322 26.2368 7.20162 26.2368 7.65282C26.2368 7.98242 26.192 8.25922 26.1024 8.48322C26.0128 8.70722 25.8784 8.91362 25.6992 9.10242C25.5232 9.29122 25.304 9.50082 25.0416 9.73122L22.944 11.5888L22.8384 11.3008H26.2368V12.3904H21.48Z" fill="#77BE1D"/>
</g>
<defs>
<filter id="filter0_b_8326_1517" x="9" y="-6" width="30" height="28.8" filterUnits="userSpaceOnUse" color-interpolation-filters="sRGB">
<feFlood flood-opacity="0" result="BackgroundImageFix"/>
<feGaussianBlur in="BackgroundImageFix" stdDeviation="3"/>
<feComposite in2="SourceAlpha" operator="in" result="effect1_backgroundBlur_8326_1517"/>
<feBlend mode="normal" in="SourceGraphic" in2="effect1_backgroundBlur_8326_1517" result="shape"/>
</filter>
</defs>
</svg>
