<svg width="134" height="33" viewBox="0 0 134 33" fill="none" xmlns="http://www.w3.org/2000/svg">
<path fill-rule="evenodd" clip-rule="evenodd" d="M3.66535 2.23315C1.64103 2.23315 0 3.83602 0 5.81327V27.2939C0 29.2712 1.64103 30.874 3.66535 30.874H40.3189C42.3432 30.874 43.9842 29.2712 43.9842 27.2939V5.81327C43.9842 3.83602 42.3432 2.23315 40.3189 2.23315H3.66535ZM24.0638 24.8034L19.7079 20.0818L20.9297 19.0441L17.8486 15.7234L19.0704 14.6857L15.9894 11.365L20.8234 7.16229L22.3639 8.77075L25.02 6.53966L26.5605 8.09623L27.5698 7.21418C27.4636 7.1623 27.344 7.09745 27.2245 7.0326C27.105 6.96775 26.9854 6.90286 26.8792 6.85098C25.3387 6.22835 23.6919 5.81327 21.939 5.81327C15.83 5.81327 10.8367 10.6386 10.8367 16.5536C10.8367 22.4686 15.83 27.2939 21.9921 27.2939C24.0107 27.2939 25.8699 26.7751 27.4635 25.893C27.9947 25.5817 28.4727 25.2705 28.9508 24.9592L26.7198 22.5204L24.0638 24.8034ZM18.008 11.5207L20.3984 14.0631L23.0545 11.7801L20.6641 9.23772L18.008 11.5207ZM24.9669 16.1385L22.5764 13.5961L19.9204 15.8791L22.3108 18.4734L24.9669 16.1385ZM24.4356 18.0064L26.8261 20.5488L24.17 22.8836L21.7796 20.3413L24.4356 18.0064ZM24.6481 12.1952L22.8951 10.2754L24.8606 8.56321L26.6667 10.483L24.6481 12.1952ZM28.4728 14.3225L26.6667 12.4027L24.7013 14.1669L26.5074 16.0347L28.4728 14.3225ZM28.3666 16.4498L30.1727 18.3696L28.2072 20.1337L26.4011 18.1621L28.3666 16.4498ZM30.279 12.0395L28.9509 13.181L30.1727 14.4782L31.4476 13.3367L30.279 12.0395ZM31.8195 18.2658L30.6508 16.9687L31.9257 15.8272L33.1475 17.1243L31.8195 18.2658ZM27.2511 9.39338L28.4728 10.6905L29.7477 9.54903L28.5791 8.25189L27.2511 9.39338ZM29.9602 23.9732L28.1541 22.0535L30.1196 20.3413L31.9257 22.261L29.9602 23.9732Z" fill="#137ABE"/>
<path d="M56.3016 13.1865L53.2032 6.20531H54.1873L57.0329 12.6812H56.5675L59.4531 6.20531H60.3839L57.2723 13.1865H56.3016ZM64.4841 13.253C63.7572 13.253 63.1189 13.1023 62.5693 12.8009C62.0197 12.4906 61.5897 12.0695 61.2794 11.5376C60.9692 10.9969 60.814 10.3807 60.814 9.68927C60.814 8.99779 60.9603 8.38611 61.2528 7.8542C61.5542 7.3223 61.962 6.90564 62.4762 6.60423C62.9992 6.29396 63.5843 6.13882 64.2315 6.13882C64.8875 6.13882 65.4682 6.28952 65.9735 6.59094C66.4876 6.88348 66.891 7.30014 67.1835 7.84091C67.4761 8.37281 67.6224 8.98893 67.6224 9.68927C67.6224 9.73359 67.6179 9.78235 67.6091 9.83554C67.6091 9.87986 67.6091 9.92862 67.6091 9.98181H61.5321V9.27704H67.1038L66.7314 9.55629C66.7314 9.05098 66.6206 8.6033 66.399 8.21324C66.1862 7.81431 65.8937 7.50403 65.5213 7.28241C65.149 7.06078 64.7191 6.94997 64.2315 6.94997C63.7528 6.94997 63.3228 7.06078 62.9416 7.28241C62.5604 7.50403 62.2634 7.81431 62.0507 8.21324C61.8379 8.61216 61.7315 9.06871 61.7315 9.58289V9.72916C61.7315 10.2611 61.8468 10.7309 62.0773 11.1387C62.3166 11.5376 62.6446 11.8523 63.0613 12.0828C63.4868 12.3045 63.97 12.4153 64.5107 12.4153C64.9363 12.4153 65.3307 12.3399 65.6942 12.1892C66.0665 12.0385 66.3857 11.808 66.6516 11.4977L67.1835 12.1094C66.8733 12.4818 66.4832 12.7654 66.0134 12.9605C65.5524 13.1555 65.0426 13.253 64.4841 13.253ZM69.5441 13.1865V6.20531H70.4483V8.10686L70.3552 7.77442C70.5502 7.24252 70.8783 6.83916 71.3392 6.56434C71.8002 6.28066 72.372 6.13882 73.0546 6.13882V7.05635C73.0192 7.05635 72.9837 7.05635 72.9482 7.05635C72.9128 7.04748 72.8773 7.04305 72.8419 7.04305C72.1061 7.04305 71.5298 7.26911 71.1132 7.72123C70.6965 8.16448 70.4882 8.79833 70.4882 9.62278V13.1865H69.5441ZM74.7774 13.1865V6.20531H75.7215V13.1865H74.7774ZM75.2561 4.66279C75.0611 4.66279 74.8971 4.5963 74.7641 4.46333C74.6311 4.33035 74.5646 4.17078 74.5646 3.98461C74.5646 3.79845 74.6311 3.64331 74.7641 3.5192C74.8971 3.38622 75.0611 3.31974 75.2561 3.31974C75.4511 3.31974 75.6151 3.38179 75.7481 3.5059C75.8811 3.63001 75.9476 3.78515 75.9476 3.97132C75.9476 4.16635 75.8811 4.33035 75.7481 4.46333C75.624 4.5963 75.46 4.66279 75.2561 4.66279ZM78.5081 13.1865V5.32767C78.5081 4.70712 78.6898 4.20624 79.0533 3.82504C79.4167 3.44385 79.9398 3.25325 80.6224 3.25325C80.8883 3.25325 81.1454 3.28871 81.3936 3.35963C81.6419 3.43055 81.8502 3.54136 82.0186 3.69207L81.6995 4.39684C81.5665 4.28159 81.4114 4.19738 81.2341 4.14419C81.0568 4.08213 80.8662 4.0511 80.6623 4.0511C80.2633 4.0511 79.9575 4.16191 79.7447 4.38354C79.532 4.60517 79.4256 4.93317 79.4256 5.36756V6.43136L79.4522 6.87018V13.1865H78.5081ZM77.2581 6.98986V6.20531H81.5798V6.98986H77.2581ZM82.8564 13.1865V6.20531H83.8005V13.1865H82.8564ZM83.3351 4.66279C83.1401 4.66279 82.9761 4.5963 82.8431 4.46333C82.7101 4.33035 82.6436 4.17078 82.6436 3.98461C82.6436 3.79845 82.7101 3.64331 82.8431 3.5192C82.9761 3.38622 83.1401 3.31974 83.3351 3.31974C83.5301 3.31974 83.6941 3.38179 83.8271 3.5059C83.9601 3.63001 84.0266 3.78515 84.0266 3.97132C84.0266 4.16635 83.9601 4.33035 83.8271 4.46333C83.703 4.5963 83.539 4.66279 83.3351 4.66279ZM89.4171 13.253C88.6901 13.253 88.0518 13.1023 87.5022 12.8009C86.9526 12.4906 86.5226 12.0695 86.2123 11.5376C85.9021 10.9969 85.7469 10.3807 85.7469 9.68927C85.7469 8.99779 85.8932 8.38611 86.1857 7.8542C86.4872 7.3223 86.895 6.90564 87.4091 6.60423C87.9322 6.29396 88.5173 6.13882 89.1644 6.13882C89.8204 6.13882 90.4011 6.28952 90.9064 6.59094C91.4206 6.88348 91.8239 7.30014 92.1165 7.84091C92.409 8.37281 92.5553 8.98893 92.5553 9.68927C92.5553 9.73359 92.5508 9.78235 92.542 9.83554C92.542 9.87986 92.542 9.92862 92.542 9.98181H86.465V9.27704H92.0367L91.6643 9.55629C91.6643 9.05098 91.5535 8.6033 91.3319 8.21324C91.1191 7.81431 90.8266 7.50403 90.4543 7.28241C90.0819 7.06078 89.652 6.94997 89.1644 6.94997C88.6857 6.94997 88.2557 7.06078 87.8745 7.28241C87.4933 7.50403 87.1964 7.81431 86.9836 8.21324C86.7708 8.61216 86.6645 9.06871 86.6645 9.58289V9.72916C86.6645 10.2611 86.7797 10.7309 87.0102 11.1387C87.2496 11.5376 87.5776 11.8523 87.9942 12.0828C88.4197 12.3045 88.9029 12.4153 89.4437 12.4153C89.8692 12.4153 90.2637 12.3399 90.6271 12.1892C90.9995 12.0385 91.3186 11.808 91.5846 11.4977L92.1165 12.1094C91.8062 12.4818 91.4161 12.7654 90.9463 12.9605C90.4853 13.1555 89.9756 13.253 89.4171 13.253ZM97.2562 13.253C96.5913 13.253 95.9929 13.1023 95.461 12.8009C94.938 12.4995 94.5257 12.0828 94.2243 11.5509C93.9229 11.0102 93.7722 10.3896 93.7722 9.68927C93.7722 8.98006 93.9229 8.35951 94.2243 7.82761C94.5257 7.29571 94.938 6.88348 95.461 6.59094C95.9929 6.28952 96.5913 6.13882 97.2562 6.13882C97.8679 6.13882 98.4131 6.27623 98.8918 6.55104C99.3794 6.82586 99.765 7.22922 100.049 7.76112C100.341 8.28416 100.487 8.92687 100.487 9.68927C100.487 10.4428 100.346 11.0855 100.062 11.6174C99.7783 12.1493 99.3926 12.5571 98.9051 12.8408C98.4264 13.1156 97.8767 13.253 97.2562 13.253ZM97.3227 12.4153C97.8191 12.4153 98.2624 12.3045 98.6524 12.0828C99.0513 11.8523 99.3616 11.5332 99.5832 11.1254C99.8137 10.7087 99.929 10.23 99.929 9.68927C99.929 9.13963 99.8137 8.66092 99.5832 8.25313C99.3616 7.84534 99.0513 7.53063 98.6524 7.309C98.2624 7.07851 97.8191 6.96327 97.3227 6.96327C96.8351 6.96327 96.3963 7.07851 96.0062 7.309C95.6161 7.53063 95.3059 7.84534 95.0754 8.25313C94.8449 8.66092 94.7296 9.13963 94.7296 9.68927C94.7296 10.23 94.8449 10.7087 95.0754 11.1254C95.3059 11.5332 95.6161 11.8523 96.0062 12.0828C96.3963 12.3045 96.8351 12.4153 97.3227 12.4153ZM99.9556 13.1865V11.0855L100.049 9.67597L99.9157 8.26643V3.31974H100.86V13.1865H99.9556Z" fill="white"/>
<path d="M56.5276 29.5532L53.4825 20.2449H55.7165L58.3627 28.4894H57.2457L60.0116 20.2449H62.0062L64.6657 28.4894H63.5886L66.3013 20.2449H68.3625L65.3173 29.5532H63.0035L60.6499 22.3194H61.2616L58.8414 29.5532H56.5276ZM72.4368 29.6596C71.6212 29.6596 70.9032 29.5 70.2826 29.1809C69.6709 28.8617 69.1966 28.4274 68.8598 27.8777C68.5229 27.3192 68.3545 26.6854 68.3545 25.9762C68.3545 25.2581 68.5185 24.6243 68.8465 24.0746C69.1833 23.5161 69.6399 23.0817 70.2161 22.7715C70.7923 22.4523 71.4439 22.2928 72.1709 22.2928C72.8712 22.2928 73.5006 22.4435 74.0591 22.7449C74.6265 23.0374 75.0742 23.4629 75.4022 24.0214C75.7302 24.5711 75.8942 25.2315 75.8942 26.0028C75.8942 26.0826 75.8897 26.1756 75.8809 26.282C75.872 26.3795 75.8631 26.4726 75.8543 26.5613H70.0432V25.3512H74.7639L73.966 25.7102C73.966 25.3379 73.8907 25.0143 73.74 24.7395C73.5893 24.4647 73.3809 24.2519 73.115 24.1012C72.849 23.9417 72.5388 23.8619 72.1841 23.8619C71.8295 23.8619 71.5148 23.9417 71.24 24.1012C70.9741 24.2519 70.7657 24.4691 70.615 24.7528C70.4643 25.0276 70.389 25.3556 70.389 25.7368V26.056C70.389 26.446 70.4732 26.7918 70.6416 27.0932C70.8189 27.3857 71.0627 27.6118 71.373 27.7714C71.6921 27.9221 72.0645 27.9974 72.49 27.9974C72.8712 27.9974 73.2036 27.9398 73.4873 27.8245C73.7799 27.7093 74.0458 27.5364 74.2852 27.3059L75.3889 28.5027C75.0609 28.875 74.6486 29.1632 74.1522 29.3671C73.6557 29.5621 73.084 29.6596 72.4368 29.6596ZM81.5039 29.6596C80.8744 29.6596 80.3337 29.5266 79.8816 29.2607C79.4294 28.9947 79.0837 28.5914 78.8444 28.0506C78.605 27.501 78.4853 26.8095 78.4853 25.9762C78.4853 25.134 78.6094 24.4425 78.8577 23.9018C79.1147 23.361 79.4693 22.9576 79.9215 22.6917C80.3736 22.4257 80.901 22.2928 81.5039 22.2928C82.1776 22.2928 82.7804 22.4435 83.3123 22.7449C83.8531 23.0463 84.2786 23.4718 84.5889 24.0214C84.908 24.5711 85.0676 25.2227 85.0676 25.9762C85.0676 26.7208 84.908 27.368 84.5889 27.9176C84.2786 28.4673 83.8531 28.8972 83.3123 29.2075C82.7804 29.5089 82.1776 29.6596 81.5039 29.6596ZM77.2752 29.5532V19.6864H79.3497V23.8486L79.2167 25.9629L79.2566 28.0905V29.5532H77.2752ZM81.1448 27.9575C81.4906 27.9575 81.7964 27.8777 82.0624 27.7182C82.3372 27.5586 82.5544 27.3325 82.7139 27.04C82.8824 26.7386 82.9666 26.384 82.9666 25.9762C82.9666 25.5595 82.8824 25.2049 82.7139 24.9124C82.5544 24.6198 82.3372 24.3938 82.0624 24.2342C81.7964 24.0746 81.4906 23.9948 81.1448 23.9948C80.7991 23.9948 80.4888 24.0746 80.214 24.2342C79.9392 24.3938 79.722 24.6198 79.5624 24.9124C79.4029 25.2049 79.3231 25.5595 79.3231 25.9762C79.3231 26.384 79.4029 26.7386 79.5624 27.04C79.722 27.3325 79.9392 27.5586 80.214 27.7182C80.4888 27.8777 80.7991 27.9575 81.1448 27.9575ZM86.6025 29.5532V20.2449H88.3844L92.3471 26.8139H91.403L95.2991 20.2449H97.0677L97.0943 29.5532H95.0731L95.0598 23.3433H95.4321L92.3205 28.5692H91.3498L88.1717 23.3433H88.6238V29.5532H86.6025ZM102.561 29.6596C101.798 29.6596 101.12 29.5 100.526 29.1809C99.941 28.8617 99.4756 28.4274 99.1299 27.8777C98.793 27.3192 98.6246 26.6854 98.6246 25.9762C98.6246 25.2581 98.793 24.6243 99.1299 24.0746C99.4756 23.5161 99.941 23.0817 100.526 22.7715C101.12 22.4523 101.798 22.2928 102.561 22.2928C103.314 22.2928 103.988 22.4523 104.582 22.7715C105.176 23.0817 105.641 23.5117 105.978 24.0613C106.315 24.611 106.483 25.2492 106.483 25.9762C106.483 26.6854 106.315 27.3192 105.978 27.8777C105.641 28.4274 105.176 28.8617 104.582 29.1809C103.988 29.5 103.314 29.6596 102.561 29.6596ZM102.561 27.9575C102.906 27.9575 103.217 27.8777 103.491 27.7182C103.766 27.5586 103.983 27.3325 104.143 27.04C104.303 26.7386 104.382 26.384 104.382 25.9762C104.382 25.5595 104.303 25.2049 104.143 24.9124C103.983 24.6198 103.766 24.3938 103.491 24.2342C103.217 24.0746 102.906 23.9948 102.561 23.9948C102.215 23.9948 101.905 24.0746 101.63 24.2342C101.355 24.3938 101.133 24.6198 100.965 24.9124C100.805 25.2049 100.726 25.5595 100.726 25.9762C100.726 26.384 100.805 26.7386 100.965 27.04C101.133 27.3325 101.355 27.5586 101.63 27.7182C101.905 27.8777 102.215 27.9575 102.561 27.9575ZM112.218 22.2928C112.786 22.2928 113.291 22.408 113.734 22.6385C114.186 22.8601 114.541 23.2059 114.798 23.6757C115.055 24.1367 115.184 24.7306 115.184 25.4576V29.5532H113.109V25.7767C113.109 25.2005 112.981 24.775 112.724 24.5002C112.475 24.2253 112.121 24.0879 111.66 24.0879C111.332 24.0879 111.035 24.1588 110.769 24.3007C110.512 24.4337 110.308 24.642 110.157 24.9257C110.015 25.2094 109.944 25.5728 109.944 26.0161V29.5532H107.87V22.3991H109.851V24.3805L109.479 23.7821C109.736 23.3034 110.104 22.9355 110.583 22.6784C111.061 22.4213 111.607 22.2928 112.218 22.2928ZM120.666 29.6596C119.851 29.6596 119.133 29.5 118.512 29.1809C117.901 28.8617 117.426 28.4274 117.089 27.8777C116.753 27.3192 116.584 26.6854 116.584 25.9762C116.584 25.2581 116.748 24.6243 117.076 24.0746C117.413 23.5161 117.869 23.0817 118.446 22.7715C119.022 22.4523 119.674 22.2928 120.4 22.2928C121.101 22.2928 121.73 22.4435 122.289 22.7449C122.856 23.0374 123.304 23.4629 123.632 24.0214C123.96 24.5711 124.124 25.2315 124.124 26.0028C124.124 26.0826 124.119 26.1756 124.11 26.282C124.102 26.3795 124.093 26.4726 124.084 26.5613H118.273V25.3512H122.993L122.196 25.7102C122.196 25.3379 122.12 25.0143 121.97 24.7395C121.819 24.4647 121.611 24.2519 121.345 24.1012C121.079 23.9417 120.768 23.8619 120.414 23.8619C120.059 23.8619 119.744 23.9417 119.47 24.1012C119.204 24.2519 118.995 24.4691 118.845 24.7528C118.694 25.0276 118.619 25.3556 118.619 25.7368V26.056C118.619 26.446 118.703 26.7918 118.871 27.0932C119.049 27.3857 119.292 27.6118 119.603 27.7714C119.922 27.9221 120.294 27.9974 120.72 27.9974C121.101 27.9974 121.433 27.9398 121.717 27.8245C122.009 27.7093 122.275 27.5364 122.515 27.3059L123.618 28.5027C123.29 28.875 122.878 29.1632 122.382 29.3671C121.885 29.5621 121.314 29.6596 120.666 29.6596ZM126.279 32.2393C125.907 32.2393 125.539 32.1817 125.176 32.0665C124.812 31.9512 124.515 31.7916 124.285 31.5877L125.043 30.1117C125.202 30.2536 125.384 30.3644 125.588 30.4442C125.801 30.5239 126.009 30.5638 126.213 30.5638C126.505 30.5638 126.736 30.4929 126.904 30.3511C127.082 30.2181 127.241 29.992 127.383 29.6729L127.755 28.7953L127.915 28.5692L130.481 22.3991H132.476L129.245 29.992C129.014 30.5683 128.748 31.0204 128.447 31.3484C128.154 31.6764 127.826 31.9069 127.463 32.0399C127.108 32.1728 126.714 32.2393 126.279 32.2393ZM127.503 29.8325L124.311 22.3991H126.452L128.925 28.383L127.503 29.8325Z" fill="white"/>
</svg>
